<svg width="7" height="7" viewBox="0 0 7 7" fill="none" xmlns="http://www.w3.org/2000/svg">
<g clip-path="url(#clip0_179_96)">
<path d="M3.52205 2.46433H2.90955V4.53567H3.52205C3.83537 4.53567 4.05386 4.38138 4.17753 4.0728C4.24505 3.90334 4.27885 3.70169 4.27892 3.46784C4.27892 3.14482 4.22824 2.89687 4.12689 2.72399C4.02554 2.55088 3.82392 2.46433 3.52205 2.46433Z" fill="white"/>
<path d="M3.5 0.21875C1.68787 0.21875 0.21875 1.68787 0.21875 3.5C0.21875 5.31213 1.68787 6.78125 3.5 6.78125C5.31213 6.78125 6.78125 5.31213 6.78125 3.5C6.78125 1.68787 5.31213 0.21875 3.5 0.21875ZM4.69864 4.49466C4.46873 4.88943 4.11392 5.08681 3.6342 5.08681H2.26581V1.91319H3.6342C3.83101 1.91596 3.99478 1.93889 4.12552 1.98198C4.34813 2.05519 4.52838 2.18943 4.66627 2.3847C4.77688 2.54257 4.85228 2.71341 4.89245 2.89723C4.95272 3.17297 4.95283 3.25609 4.95283 3.42256C4.95283 3.84453 4.8681 4.2019 4.69864 4.49466Z" fill="white"/>
</g>
<defs>
<clipPath id="clip0_179_96">
<rect width="7" height="7" fill="white"/>
</clipPath>
</defs>
</svg>
