<svg width="9" height="9" viewBox="0 0 9 9" fill="none" xmlns="http://www.w3.org/2000/svg">
<g clip-path="url(#clip0_179_94)">
<path d="M4.5 0.28125C2.17012 0.28125 0.28125 2.17012 0.28125 4.5C0.28125 6.82988 2.17012 8.71875 4.5 8.71875C6.82988 8.71875 8.71875 6.82988 8.71875 4.5C8.71875 2.17012 6.82988 0.28125 4.5 0.28125ZM6.47367 6.54019H5.67914V3.78028C5.67923 3.70097 5.68017 3.58978 5.68195 3.44672C5.68383 3.30356 5.68477 3.19327 5.68477 3.11583L4.91161 6.54019H4.08291L3.31523 3.11583C3.31523 3.19327 3.31617 3.30356 3.31805 3.44672C3.31992 3.58978 3.32086 3.70097 3.32086 3.78028V6.54019H2.52633V2.45981H3.7672L4.50984 5.66803L5.247 2.45981H6.47395V6.54019H6.47367Z" fill="white"/>
</g>
<defs>
<clipPath id="clip0_179_94">
<rect width="9" height="9" fill="white"/>
</clipPath>
</defs>
</svg>
