<svg width="7" height="7" viewBox="0 0 7 7" fill="none" xmlns="http://www.w3.org/2000/svg">
<g clip-path="url(#clip0_179_71)">
<path d="M3.5 0.21875C1.68787 0.21875 0.21875 1.68787 0.21875 3.5C0.21875 5.31213 1.68787 6.78125 3.5 6.78125C5.31213 6.78125 6.78125 5.31213 6.78125 3.5C6.78125 1.68787 5.31213 0.21875 3.5 0.21875ZM5.03508 5.08681H4.41711V2.94022C4.41718 2.87853 4.41791 2.79205 4.4193 2.68078C4.42076 2.56944 4.42148 2.48365 4.42148 2.42342L3.82014 5.08681H3.17559L2.57852 2.42342C2.57852 2.48365 2.57924 2.56944 2.5807 2.68078C2.58216 2.79205 2.58289 2.87853 2.58289 2.94022V5.08681H1.96492V1.91319H2.93005L3.50766 4.40847L4.081 1.91319H5.0353V5.08681H5.03508Z" fill="black"/>
</g>
<defs>
<clipPath id="clip0_179_71">
<rect width="7" height="7" fill="white"/>
</clipPath>
</defs>
</svg>
