<svg width="7" height="7" viewBox="0 0 7 7" fill="none" xmlns="http://www.w3.org/2000/svg">
<g clip-path="url(#clip0_179_76)">
<path d="M4.00357 2.52033C3.93539 2.483 3.83312 2.46433 3.69677 2.46433H2.96472V3.31691H3.67839C3.82007 3.31698 3.92638 3.29974 3.99733 3.26517C4.12275 3.20502 4.18549 3.08587 4.18557 2.90773C4.18557 2.71545 4.1249 2.58632 4.00357 2.52033Z" fill="black"/>
<path d="M3.50022 0.21875C1.68809 0.21875 0.21875 1.68787 0.21875 3.5C0.21875 5.31213 1.68809 6.78125 3.50022 6.78125C5.31234 6.78125 6.78147 5.31213 6.78147 3.5C6.78147 1.68787 5.31234 0.21875 3.50022 0.21875ZM4.90241 5.08681H4.17036C4.15387 5.03069 4.13953 4.97395 4.12738 4.91673C4.10986 4.82661 4.10049 4.7351 4.09938 4.6433L4.09489 4.34831C4.09234 4.14597 4.05738 4.01104 3.99 3.94352C3.92284 3.87621 3.79695 3.84253 3.61233 3.84245H2.96461V5.08681H2.31656V1.91319H3.83458C4.05158 1.91749 4.21848 1.94476 4.3353 1.995C4.51052 2.07036 4.55131 2.11914 4.63247 2.2167C4.69947 2.29668 4.75334 2.3868 4.79205 2.48369C4.83113 2.58125 4.85071 2.69248 4.85078 2.81739C4.85078 2.96811 4.81276 3.11628 4.7367 3.26189C4.62263 3.48031 4.53502 3.5105 4.35991 3.57098C4.50632 3.62983 4.61001 3.71343 4.67097 3.82178C4.73207 3.93014 4.76263 4.09555 4.76263 4.31802V4.53119C4.76263 4.67607 4.76846 4.7744 4.78013 4.82617C4.79763 4.90798 4.83842 4.96821 4.90252 5.00686L4.90241 5.08681Z" fill="black"/>
</g>
<defs>
<clipPath id="clip0_179_76">
<rect width="7" height="7" fill="white"/>
</clipPath>
</defs>
</svg>
