<svg width="7" height="7" viewBox="0 0 7 7" fill="none" xmlns="http://www.w3.org/2000/svg">
<g clip-path="url(#clip0_179_106)">
<path d="M3.47668 0.194443C3.77755 0.194443 4.06816 0.233191 4.34852 0.310688C4.62888 0.388185 4.88986 0.498732 5.13147 0.642329C5.37308 0.785927 5.59417 0.956876 5.79475 1.15518C5.99533 1.35348 6.16628 1.57457 6.3076 1.81846C6.44891 2.06235 6.55946 2.32447 6.63924 2.60482C6.71901 2.88518 6.7589 3.17579 6.7589 3.47666C6.7589 3.77754 6.72015 4.06815 6.64266 4.34851C6.56516 4.62886 6.45461 4.88984 6.31102 5.13145C6.16742 5.37306 5.99647 5.59415 5.79817 5.79473C5.59987 5.99531 5.37877 6.16626 5.13489 6.30758C4.891 6.4489 4.62888 6.55945 4.34852 6.63922C4.06816 6.719 3.77755 6.75889 3.47668 6.75889C3.17581 6.75889 2.8852 6.72014 2.60484 6.64264C2.32448 6.56514 2.0635 6.4546 1.82189 6.311C1.58029 6.1674 1.35919 5.99645 1.15861 5.79815C0.958031 5.59985 0.787081 5.37876 0.645764 5.13487C0.504446 4.89098 0.393899 4.63 0.314122 4.35192C0.234346 4.07385 0.194458 3.78209 0.194458 3.47666C0.194458 3.17579 0.233206 2.88518 0.310703 2.60482C0.3882 2.32447 0.498747 2.06349 0.642345 1.82188C0.785942 1.58027 0.956891 1.35918 1.15519 1.1586C1.35349 0.958015 1.57459 0.787066 1.81847 0.645748C2.06236 0.50443 2.32334 0.393883 2.60142 0.314107C2.8795 0.234331 3.17125 0.194443 3.47668 0.194443ZM3.69549 5.00837H3.25787V5.446H3.69549V5.00837ZM3.72285 4.43056C3.72285 4.34623 3.73082 4.26645 3.74678 4.19123C3.76273 4.11601 3.80376 4.04536 3.86986 3.97926C3.95876 3.89036 4.04651 3.80603 4.13312 3.72625C4.21974 3.64647 4.29724 3.561 4.36562 3.46983C4.43399 3.37865 4.48984 3.28178 4.53315 3.17921C4.57645 3.07664 4.59811 2.95698 4.59811 2.82022C4.59811 2.66523 4.56847 2.52049 4.50921 2.38601C4.44995 2.25153 4.37017 2.13301 4.26988 2.03044C4.16959 1.92787 4.05107 1.84695 3.91431 1.78769C3.77755 1.72843 3.63167 1.69879 3.47668 1.69879C3.32169 1.69879 3.17695 1.72843 3.04247 1.78769C2.90799 1.84695 2.78946 1.92673 2.6869 2.02702C2.58433 2.12731 2.50341 2.24583 2.44415 2.38259C2.38489 2.51935 2.35525 2.66523 2.35525 2.82022H2.84759C2.84759 2.73361 2.86354 2.65269 2.89545 2.57747C2.92736 2.50226 2.97295 2.43502 3.03221 2.37575C3.09147 2.31649 3.15758 2.27204 3.23051 2.24241C3.30345 2.21278 3.38551 2.19569 3.47668 2.19113C3.56329 2.19113 3.64421 2.20708 3.71943 2.23899C3.79465 2.2709 3.86189 2.31649 3.92115 2.37575C3.98041 2.43502 4.02486 2.50112 4.05449 2.57405C4.08412 2.64699 4.10121 2.72905 4.10577 2.82022C4.10577 2.91367 4.08412 2.99687 4.04081 3.06981C3.9975 3.14274 3.94394 3.21226 3.88012 3.27836C3.8163 3.34446 3.74564 3.41284 3.66814 3.4835C3.59065 3.55416 3.52113 3.62938 3.45959 3.70916C3.39804 3.78893 3.34334 3.88124 3.29547 3.98609C3.24761 4.09094 3.22595 4.21289 3.23051 4.35192V4.57074H3.72285V4.43056Z" fill="black"/>
</g>
<defs>
<clipPath id="clip0_179_106">
<rect width="7" height="7" fill="white"/>
</clipPath>
</defs>
</svg>
