<svg width="16" height="16" viewBox="0 0 16 16" fill="none" xmlns="http://www.w3.org/2000/svg">
<path d="M12 8.00002C12 9.06089 11.5786 10.0783 10.8285 10.8285C10.0783 11.5786 9.06089 12 8.00002 12C6.93915 12 5.92173 11.5786 5.17158 10.8285C4.42143 10.0783 4 9.06089 4 8.00002M12 8.00002C12 6.93915 11.5786 5.92173 10.8285 5.17158C10.0783 4.42143 9.06089 4 8.00002 4C6.93915 4 5.92173 4.42143 5.17158 5.17158C4.42143 5.92173 4 6.93915 4 8.00002M12 8.00002H4" stroke="black" stroke-linecap="round" stroke-linejoin="round"/>
<path d="M9.53842 8C9.46285 9.46277 8.92407 10.8636 7.99996 12C7.07584 10.8636 6.53706 9.46277 6.46149 8C6.53706 6.53723 7.07584 5.13639 7.99996 3.99998C8.92407 5.13639 9.46285 6.53723 9.53842 8Z" stroke="black" stroke-linecap="round" stroke-linejoin="round"/>
</svg>
